<?xml version="1.0" standalone="no"?>
<!DOCTYPE svg PUBLIC "-//W3C//DTD SVG 20010904//EN"
 "http://www.w3.org/TR/2001/REC-SVG-20010904/DTD/svg10.dtd">
<svg version="1.0" xmlns="http://www.w3.org/2000/svg"
 width="525.000000pt" height="525.000000pt" viewBox="0 0 525.000000 525.000000"
 preserveAspectRatio="xMidYMid meet">
<metadata>
Created by potrace 1.11, written by Peter Selinger 2001-2013
</metadata>
<g transform="translate(0.000000,525.000000) scale(0.100000,-0.100000)"
fill="#000000" stroke="none">
<path d="M2500 5229 c-66 -23 -142 -79 -182 -135 -19 -27 -40 -44 -52 -45
-166 -5 -327 -144 -352 -304 -3 -22 -11 -43 -17 -47 -7 -4 -52 -21 -102 -38
-251 -87 -566 -277 -779 -470 -102 -92 -246 -248 -296 -320 -13 -19 -27 -37
-31 -40 -22 -17 -143 -215 -204 -334 -136 -263 -214 -520 -250 -821 -12 -106
-13 -501 -1 -554 3 -12 8 -44 11 -69 14 -125 75 -357 131 -503 245 -643 751
-1150 1394 -1396 125 -48 332 -104 450 -123 41 -6 86 -14 100 -17 45 -11 544
-11 605 -1 122 20 312 61 390 84 627 187 1172 644 1458 1224 34 69 68 141 75
160 8 19 18 44 23 55 45 102 116 369 134 506 19 150 23 202 23 364 0 483 -133
926 -397 1325 -115 174 -288 371 -441 500 -29 25 -58 50 -64 55 -12 11 -9 9
-163 115 -132 91 -348 202 -505 259 l-117 43 -6 41 c-25 148 -167 282 -318
301 -49 6 -56 11 -90 57 -95 126 -277 181 -427 128z"/>
<path d="M4570 5145 c-102 -21 -174 -78 -217 -171 -66 -144 -9 -313 131 -390
52 -28 67 -32 136 -32 126 0 217 55 271 164 34 69 35 198 1 266 -60 121 -194
190 -322 163z m155 -68 c120 -59 170 -206 115 -336 -39 -90 -117 -141 -215
-141 -166 0 -279 170 -225 336 44 133 202 202 325 141z"/>
<path d="M4522 5011 c-6 -3 -9 -76 -8 -171 1 -176 -1 -167 46 -161 6 0 10 32
10 71 0 70 0 70 28 70 45 0 69 -25 83 -85 7 -30 15 -56 18 -56 3 -1 18 -3 33
-4 25 -3 26 -2 18 23 -8 23 -15 60 -19 95 -1 4 -10 16 -22 28 l-20 20 24 19
c50 40 40 116 -20 144 -35 16 -149 21 -171 7z m151 -62 c21 -27 21 -31 -2 -61
-15 -18 -30 -25 -60 -26 l-41 -2 0 54 c0 34 5 56 13 59 24 10 72 -4 90 -24z"/>
</g>
</svg>
